<svg width="174" height="34" viewBox="0 0 174 34" fill="none" xmlns="http://www.w3.org/2000/svg">
<path d="M19.6938 1L1 10.3659V18.9512L11.2633 18.561L1 26.7561V33L19.6938 18.561L13.4625 11.5366L19.6938 1Z" fill="#F6516C"/>
<path d="M19.6938 1L1 10.3659V18.9512L11.2633 18.561L1 26.7561V33M19.6938 1H28.4909L22.2596 11.5366L29 19V19.5L11.2633 33H1M19.6938 1L13.4625 11.5366L19.6938 18.561L1 33" stroke="#F6516C" stroke-width="2"/>
<path d="M39.756 13.556L47.484 12.716V5.63201L54.708 4.76401V11.904L62.38 11.064V17.196L52.748 18.288V13.724L49.388 14.088V18.596L39.756 19.688V13.556ZM63.192 20.388V25.904L39 28.564V23.048L63.192 20.388Z" fill="#F6516C"/>
<path d="M84.0575 4.70801V7.50801L85.7935 7.34001V5.66001L91.3655 4.70801V14.536L85.7935 15.152V12.884L84.0575 13.052V15.348L78.4855 15.964V5.66001L84.0575 4.70801ZM66.7255 18.456L73.0815 17.756V19.52L85.0095 18.176V16.44L91.3655 15.74V26.604L66.7255 29.292V18.456ZM66.0535 17.14V5.88401L71.5975 4.93201V11.764L77.3655 11.12V15.88L66.0535 17.14ZM85.0095 23.412V21.816L73.0815 23.16V24.728L85.0095 23.412Z" fill="#F6516C"/>
<path d="M112.604 4.70801V13.332L114.34 13.164V5.66001L119.912 4.70801V27.668L114.34 28.284V18.988L112.604 19.156V27.668L107.032 28.284V5.66001L112.604 4.70801ZM93.5923 10.812V5.66001L97.4003 4.70801V5.66001L101.404 4.70801V5.66001L105.212 4.70801V27.304L99.6683 27.92V20.444L93.5923 21.116V15.796L99.6683 15.124V10.14L93.5923 10.812Z" fill="#F6516C"/>
<path d="M123.455 13.556L131.183 12.716V5.63201L138.407 4.76401V11.904L146.079 11.064V17.196L136.447 18.288V13.724L133.087 14.088V18.596L123.455 19.688V13.556ZM146.891 20.388V25.904L122.699 28.564V23.048L146.891 20.388Z" fill="#F6516C"/>
<path d="M173.497 21.228V26.184L149.305 28.844V23.888L173.497 21.228ZM172.153 9.07601L157.033 10.756V11.876L171.929 10.224V14.2L157.033 15.852V17.028L172.153 15.348V19.744L150.677 22.096V5.63201L157.929 4.70801V5.63201L165.069 4.70801V5.66001L172.153 4.70801V9.07601Z" fill="#F6516C"/>
</svg>
